<?xml version="1.0" standalone="no"?>
<!DOCTYPE svg PUBLIC "-//W3C//DTD SVG 20010904//EN"
 "http://www.w3.org/TR/2001/REC-SVG-20010904/DTD/svg10.dtd">
<svg version="1.0" xmlns="http://www.w3.org/2000/svg"
 width="250.000000pt" height="250.000000pt" viewBox="0 0 250.000000 250.000000"
 preserveAspectRatio="xMidYMid meet">
<metadata>
Created by potrace 1.11, written by Peter Selinger 2001-2013
</metadata>
<g transform="translate(0.000000,250.000000) scale(0.100000,-0.100000)"
fill="#000000" stroke="none">
<path d="M1185 2466 c-22 -12 -148 -78 -280 -146 -132 -67 -276 -142 -320
-165 -44 -23 -188 -98 -320 -165 -132 -68 -246 -127 -252 -133 -10 -7 -13
-142 -13 -612 0 -470 3 -605 13 -612 6 -6 111 -61 232 -123 121 -62 270 -138
330 -170 135 -70 506 -262 595 -307 36 -18 73 -33 83 -33 10 0 46 15 80 34 34
18 157 82 272 141 116 59 255 131 310 160 55 29 204 105 330 170 127 65 236
122 243 128 18 14 18 1210 0 1224 -7 6 -116 63 -243 128 -126 65 -266 137
-310 160 -44 23 -201 104 -350 180 -148 76 -279 144 -290 152 -28 19 -64 16
-110 -11z m17 -613 c0 -279 -1 -516 -1 -525 -2 -33 -38 -30 -113 10 -40 22
-161 84 -268 139 -535 274 -636 327 -653 339 -16 11 -4 19 105 74 68 35 146
75 173 90 28 15 167 87 310 160 143 74 300 155 350 181 49 26 92 46 93 44 2
-2 4 -232 4 -512z m518 300 c74 -39 243 -125 375 -193 132 -68 244 -126 248
-130 4 -4 -34 -28 -85 -55 -51 -26 -138 -71 -193 -100 -55 -29 -203 -105 -330
-170 -126 -65 -268 -138 -313 -162 -96 -50 -122 -50 -123 0 0 38 0 948 1 995
l0 33 143 -74 c78 -41 203 -106 277 -144z m-1125 -663 c99 -52 272 -140 384
-196 113 -57 209 -108 214 -113 7 -7 14 -932 8 -1049 -1 -8 -44 10 -113 46
-62 33 -203 105 -313 162 -110 56 -249 128 -310 160 -60 32 -155 81 -210 109
-55 29 -113 60 -130 70 l-30 18 -2 526 -2 527 162 -84 c89 -46 243 -125 342
-176z m1813 -269 c1 -474 -1 -520 -16 -534 -9 -8 -138 -76 -287 -152 -326
-166 -542 -277 -692 -357 -62 -32 -113 -55 -114 -51 -5 66 1 1047 7 1053 5 4
106 57 224 118 250 127 588 301 745 383 61 32 115 58 121 58 9 1 12 -134 12
-518z"/>
</g>
</svg>
